<svg width="26" height="22" viewBox="0 0 26 22" fill="none" xmlns="http://www.w3.org/2000/svg">
<path d="M1.33337 5.16667L10.8591 11.8347C11.6305 12.3746 12.0162 12.6446 12.4357 12.7492C12.8063 12.8416 13.1938 12.8416 13.5644 12.7492C13.9839 12.6446 14.3696 12.3746 15.141 11.8347L24.6667 5.16667M6.93337 20.3333H19.0667C21.0269 20.3333 22.007 20.3333 22.7557 19.9519C23.4142 19.6163 23.9497 19.0809 24.2852 18.4223C24.6667 17.6736 24.6667 16.6935 24.6667 14.7333V7.26667C24.6667 5.30649 24.6667 4.3264 24.2852 3.57771C23.9497 2.91914 23.4142 2.38371 22.7557 2.04815C22.007 1.66667 21.0269 1.66667 19.0667 1.66667H6.93337C4.97319 1.66667 3.9931 1.66667 3.24441 2.04815C2.58584 2.38371 2.05041 2.91914 1.71485 3.57771C1.33337 4.3264 1.33337 5.30649 1.33337 7.26667V14.7333C1.33337 16.6935 1.33337 17.6736 1.71485 18.4223C2.05041 19.0809 2.58584 19.6163 3.24441 19.9519C3.9931 20.3333 4.97319 20.3333 6.93337 20.3333Z" stroke="#7244C8" stroke-width="2" stroke-linecap="round" stroke-linejoin="round"/>
</svg>
