<svg width="16" height="12" viewBox="0 0 16 12" fill="none" xmlns="http://www.w3.org/2000/svg">
<path d="M1.33334 2.66669L6.77662 6.47698C7.2174 6.78553 7.43779 6.9398 7.67752 6.99956C7.88927 7.05234 8.11075 7.05234 8.3225 6.99956C8.56223 6.9398 8.78262 6.78553 9.2234 6.47698L14.6667 2.66669M4.53334 11.3334H11.4667C12.5868 11.3334 13.1468 11.3334 13.5747 11.1154C13.951 10.9236 14.2569 10.6177 14.4487 10.2413C14.6667 9.81351 14.6667 9.25346 14.6667 8.13335V3.86669C14.6667 2.74658 14.6667 2.18653 14.4487 1.75871C14.2569 1.38238 13.951 1.07642 13.5747 0.884674C13.1468 0.666687 12.5868 0.666687 11.4667 0.666687H4.53334C3.41324 0.666687 2.85319 0.666687 2.42536 0.884674C2.04904 1.07642 1.74308 1.38238 1.55133 1.75871C1.33334 2.18653 1.33334 2.74658 1.33334 3.86669V8.13335C1.33334 9.25346 1.33334 9.81351 1.55133 10.2413C1.74308 10.6177 2.04904 10.9236 2.42536 11.1154C2.85319 11.3334 3.41324 11.3334 4.53334 11.3334Z" stroke="#667085" stroke-width="1.33333" stroke-linecap="round" stroke-linejoin="round"/>
</svg>
